<svg xmlns="http://www.w3.org/2000/svg" viewBox="0 0 64 64">
  <rect width="64" height="64" rx="16" fill="#ffffff"/>
  <path d="M18 13h17.5c7.2 0 12 4 12 10.2 0 4-2.1 7.1-5.8 8.8 4.7 1.4 7.3 4.8 7.3 9.3C49 48.1 43.6 52 35.5 52H18V13Zm10.2 15.2h6.1c2.3 0 3.8-1.2 3.8-3.2s-1.5-3.1-3.8-3.1h-6.1v6.3Zm0 15h7.2c2.7 0 4.3-1.3 4.3-3.6s-1.6-3.5-4.3-3.5h-7.2v7.1Z" fill="#111111"/>
  <path d="M14 49 47 16" stroke="#dc2626" stroke-width="6" stroke-linecap="round"/>
  <path d="M47 16 45 31 58 18 47 16Z" fill="#dc2626"/>
  <path d="M14 49 7 55 20 52 14 49Z" fill="#dc2626"/>
</svg>
